<svg xmlns="http://www.w3.org/2000/svg" viewBox="0 0 108 108" width="200" height="200">
  <defs>
    <linearGradient id="auraGlow" x1="28" y1="28" x2="80" y2="80" gradientUnits="userSpaceOnUse">
      <stop offset="0%" stop-color="#00E5FF"/>
      <stop offset="100%" stop-color="#D500F9"/>
    </linearGradient>
  </defs>
  <!-- Background -->
  <rect width="108" height="108" fill="#050505"/>
  <!-- Aura Ring -->
  <path d="M 54 28 C 39.64 28 28 39.64 28 54 C 28 68.36 39.64 80 54 80 C 68.36 80 80 68.36 80 54 C 80 39.64 68.36 28 54 28 Z M 54 36 C 63.94 36 72 44.06 72 54 C 72 63.94 63.94 72 54 72 C 44.06 72 36 63.94 36 54 C 36 44.06 44.06 36 54 36 Z" fill="url(#auraGlow)"/>
  <!-- Inner Core -->
  <path d="M 54 48 C 50.69 48 48 50.69 48 54 C 48 57.31 50.69 60 54 60 C 57.31 60 60 57.31 60 54 C 60 50.69 57.31 48 54 48 Z" fill="#FFFFFF"/>
</svg>
